<svg width="500" height="500" viewBox="0 0 500 500" fill="none" xmlns="http://www.w3.org/2000/svg">
<path d="M235.75 380.3C221.05 380.3 208.1 377.733 196.9 372.6C185.7 367.467 177.067 360.35 171 351.25C164.933 341.917 161.9 331.183 161.9 319.05C161.9 308.783 164 299.45 168.2 291.05C172.633 282.65 178.467 276 185.7 271.1C193.167 266.2 201.333 263.75 210.2 263.75C218.367 263.75 225.25 265.85 230.85 270.05C236.45 274.017 239.95 279.617 241.35 286.85C229.217 286.85 219.533 290.117 212.3 296.65C205.067 302.95 201.45 311.583 201.45 322.55C201.45 332.583 204.483 340.633 210.55 346.7C216.617 352.767 224.667 355.8 234.7 355.8C247.067 355.8 257.217 351.717 265.15 343.55C273.317 335.15 277.4 324.65 277.4 312.05C277.4 301.083 274.367 290.7 268.3 280.9C262.233 271.1 253.133 259.2 241 245.2C228.4 230.733 218.833 218.367 212.3 208.1C206 197.6 202.85 186.167 202.85 173.8C202.85 161.667 206.233 150.817 213 141.25C219.767 131.45 229.1 123.75 241 118.15C252.9 112.55 266.317 109.75 281.25 109.75C300.15 109.75 315.2 114.183 326.4 123.05C337.833 131.917 343.55 143.817 343.55 158.75C343.55 168.55 341.1 176.483 336.2 182.55C331.3 188.617 324.883 191.65 316.95 191.65C308.083 191.65 300.967 188.033 295.6 180.8C300.033 177.533 303.533 173.217 306.1 167.85C308.667 162.483 309.95 156.883 309.95 151.05C309.95 143.583 307.733 137.633 303.3 133.2C298.867 128.767 292.8 126.55 285.1 126.55C275.767 126.55 268.067 129.933 262 136.7C256.167 143.233 253.25 151.633 253.25 161.9C253.25 171.233 255.933 179.983 261.3 188.15C266.667 196.083 275.067 206.35 286.5 218.95C295.833 228.983 303.3 237.617 308.9 244.85C314.733 252.083 319.633 260.483 323.6 270.05C327.8 279.383 329.9 289.533 329.9 300.5C329.9 315.433 325.7 328.967 317.3 341.1C309.133 353.233 297.817 362.8 283.35 369.8C269.117 376.8 253.25 380.3 235.75 380.3Z" fill="#FFB68C"/>
<path fill-rule="evenodd" clip-rule="evenodd" d="M351 401.689C399.239 369.399 431 314.408 431 252C431 237.896 429.378 224.17 426.31 211H462.095C464.658 224.272 466 237.979 466 252C466 334.638 419.377 406.387 351 442.378V401.689Z" fill="#FF8139"/>
<path fill-rule="evenodd" clip-rule="evenodd" d="M220.902 39.0901C116.41 53.7276 36 143.473 36 252C36 261.084 36.5633 270.036 37.657 278.823L45.7321 285.825L71.058 256.616C71.0194 255.082 71 253.543 71 252C71 161.264 138.136 86.2095 225.444 73.8003C219.635 68.8692 216 61.8232 216 54C216 48.4883 217.804 43.3624 220.902 39.0901Z" fill="#FF8139"/>
<circle cx="225" cy="54" r="25" fill="#FF8139"/>
<circle cx="56" cy="268" r="25" fill="#FF8139"/>
<circle cx="443" cy="211" r="25" fill="#FF8139"/>
<circle cx="356" cy="418" r="25" fill="#FF8139"/>
</svg>
